<svg xmlns="http://www.w3.org/2000/svg" width="1260" height="760">
<rect width="100%" height="100%" fill="#f8f6f1"/>
<text x="80" y="44" font-size="28" font-weight="700" fill="#1f2937">Checkout 1 Investigation Summary</text>
<text x="80" y="72" font-size="14" fill="#5f6b7a">Question: does this checkout deserve investigation before the others?</text>
<rect x="1015" y="28" width="165" height="40" rx="20" fill="#fde68a" />
<text x="1097.5" y="54" font-size="15" font-weight="700" text-anchor="middle" fill="#92400e">WATCH</text>
<rect x="80.00" y="102.00" width="252.00" height="88.00" rx="16" fill="#ffffff" stroke="#d7d0c5" /><text x="98.00" y="130.00" font-size="13" fill="#5f6b7a">Today total</text><text x="98.00" y="164.00" font-size="28" font-weight="700" fill="#1f2937">526</text><rect x="350.00" y="102.00" width="252.00" height="88.00" rx="16" fill="#ffffff" stroke="#d7d0c5" /><text x="368.00" y="130.00" font-size="13" fill="#5f6b7a">Expected total</text><text x="368.00" y="164.00" font-size="28" font-weight="700" fill="#1f2937">431.6</text><rect x="620.00" y="102.00" width="252.00" height="88.00" rx="16" fill="#ffffff" stroke="#d7d0c5" /><text x="638.00" y="130.00" font-size="13" fill="#5f6b7a">Net deviation</text><text x="638.00" y="164.00" font-size="28" font-weight="700" fill="#1f2937">+21.9%</text><rect x="890.00" y="102.00" width="252.00" height="88.00" rx="16" fill="#ffffff" stroke="#d7d0c5" /><text x="908.00" y="130.00" font-size="13" fill="#5f6b7a">Investigate first</text><text x="908.00" y="164.00" font-size="28" font-weight="700" fill="#1f2937">No - secondary</text>
<rect x="80.00" y="240.00" width="740.00" height="380.00" rx="18" fill="#ffffff" stroke="#d7d0c5" />
<text x="98.00" y="224.00" font-size="15" font-weight="700" fill="#1f2937">Today vs expected hourly volume</text>
<text x="98.00" y="264.00" font-size="12" fill="#5f6b7a">Expected is the blended baseline from recent historical references; yesterday alone remains evidence but is noisier on its own.</text>
<line x1="80.00" y1="240.00" x2="820.00" y2="240.00" stroke="#dfe4ea" /><text x="62.00" y="244.00" font-size="11" text-anchor="end" fill="#5f6b7a">55</text><line x1="80.00" y1="316.00" x2="820.00" y2="316.00" stroke="#dfe4ea" /><text x="62.00" y="320.00" font-size="11" text-anchor="end" fill="#5f6b7a">44</text><line x1="80.00" y1="392.00" x2="820.00" y2="392.00" stroke="#dfe4ea" /><text x="62.00" y="396.00" font-size="11" text-anchor="end" fill="#5f6b7a">33</text><line x1="80.00" y1="468.00" x2="820.00" y2="468.00" stroke="#dfe4ea" /><text x="62.00" y="472.00" font-size="11" text-anchor="end" fill="#5f6b7a">22</text><line x1="80.00" y1="544.00" x2="820.00" y2="544.00" stroke="#dfe4ea" /><text x="62.00" y="548.00" font-size="11" text-anchor="end" fill="#5f6b7a">11</text><line x1="80.00" y1="620.00" x2="820.00" y2="620.00" stroke="#dfe4ea" /><text x="62.00" y="624.00" font-size="11" text-anchor="end" fill="#5f6b7a">0</text>
<rect x="321.30" y="240.00" width="64.35" height="380.00" fill="#f7c6c7" opacity="0.36" /><rect x="385.65" y="240.00" width="32.17" height="380.00" fill="#f6d365" opacity="0.28" /><rect x="450.00" y="240.00" width="32.17" height="380.00" fill="#f6d365" opacity="0.28" /><rect x="610.87" y="240.00" width="32.17" height="380.00" fill="#f6d365" opacity="0.28" />
<line x1="80.00" y1="620.00" x2="820.00" y2="620.00" stroke="#68717d" />
<line x1="80.00" y1="240.00" x2="80.00" y2="620.00" stroke="#68717d" />
<polyline fill="none" stroke="#6b7280" stroke-width="3" stroke-dasharray="10 8" points="80.00,568.71 112.17,609.01 144.35,617.47 176.52,617.97 208.70,616.25 240.87,610.72 273.04,596.67 305.22,574.45 337.39,534.49 369.57,460.93 401.74,383.32 433.91,389.21 466.09,408.14 498.26,405.68 530.43,418.83 562.61,378.53 594.78,386.59 626.96,454.87 659.13,470.65 691.30,429.29 723.48,458.00 755.65,458.14 787.83,495.50 820.00,554.78" />
<polyline fill="none" stroke="#0f4c81" stroke-width="4" points="80.00,557.82 112.17,599.27 144.35,613.09 176.52,613.09 208.70,620.00 240.87,613.09 273.04,613.09 305.22,606.18 337.39,620.00 369.57,606.18 401.74,240.00 433.91,371.27 466.09,267.64 498.26,371.27 530.43,398.91 562.61,267.64 594.78,336.73 626.96,309.09 659.13,398.91 691.30,392.00 723.48,447.27 755.65,412.73 787.83,426.55 820.00,544.00" />
<circle cx="369.57" cy="606.18" r="11" fill="#b42318" stroke="white" stroke-width="2" /><text x="369.57" y="610.18" font-size="10" text-anchor="middle" fill="white" font-weight="700">1</text><circle cx="626.96" cy="309.09" r="11" fill="#b45309" stroke="white" stroke-width="2" /><text x="626.96" y="313.09" font-size="10" text-anchor="middle" fill="white" font-weight="700">2</text><circle cx="401.74" cy="240.00" r="11" fill="#b45309" stroke="white" stroke-width="2" /><text x="401.74" y="244.00" font-size="10" text-anchor="middle" fill="white" font-weight="700">3</text><circle cx="466.09" cy="267.64" r="11" fill="#b45309" stroke="white" stroke-width="2" /><text x="466.09" y="271.64" font-size="10" text-anchor="middle" fill="white" font-weight="700">4</text>
<text x="80.00" y="648.00" font-size="10" text-anchor="middle" fill="#5f6b7a">00h</text><text x="112.17" y="648.00" font-size="10" text-anchor="middle" fill="#5f6b7a">01h</text><text x="144.35" y="648.00" font-size="10" text-anchor="middle" fill="#5f6b7a">02h</text><text x="176.52" y="648.00" font-size="10" text-anchor="middle" fill="#5f6b7a">03h</text><text x="208.70" y="648.00" font-size="10" text-anchor="middle" fill="#5f6b7a">04h</text><text x="240.87" y="648.00" font-size="10" text-anchor="middle" fill="#5f6b7a">05h</text><text x="273.04" y="648.00" font-size="10" text-anchor="middle" fill="#5f6b7a">06h</text><text x="305.22" y="648.00" font-size="10" text-anchor="middle" fill="#5f6b7a">07h</text><text x="337.39" y="648.00" font-size="10" text-anchor="middle" fill="#5f6b7a">08h</text><text x="369.57" y="648.00" font-size="10" text-anchor="middle" fill="#5f6b7a">09h</text><text x="401.74" y="648.00" font-size="10" text-anchor="middle" fill="#5f6b7a">10h</text><text x="433.91" y="648.00" font-size="10" text-anchor="middle" fill="#5f6b7a">11h</text><text x="466.09" y="648.00" font-size="10" text-anchor="middle" fill="#5f6b7a">12h</text><text x="498.26" y="648.00" font-size="10" text-anchor="middle" fill="#5f6b7a">13h</text><text x="530.43" y="648.00" font-size="10" text-anchor="middle" fill="#5f6b7a">14h</text><text x="562.61" y="648.00" font-size="10" text-anchor="middle" fill="#5f6b7a">15h</text><text x="594.78" y="648.00" font-size="10" text-anchor="middle" fill="#5f6b7a">16h</text><text x="626.96" y="648.00" font-size="10" text-anchor="middle" fill="#5f6b7a">17h</text><text x="659.13" y="648.00" font-size="10" text-anchor="middle" fill="#5f6b7a">18h</text><text x="691.30" y="648.00" font-size="10" text-anchor="middle" fill="#5f6b7a">19h</text><text x="723.48" y="648.00" font-size="10" text-anchor="middle" fill="#5f6b7a">20h</text><text x="755.65" y="648.00" font-size="10" text-anchor="middle" fill="#5f6b7a">21h</text><text x="787.83" y="648.00" font-size="10" text-anchor="middle" fill="#5f6b7a">22h</text><text x="820.00" y="648.00" font-size="10" text-anchor="middle" fill="#5f6b7a">23h</text>
<text x="98.00" y="676.00" font-size="12" fill="#0f4c81">Today</text>
<text x="170.00" y="676.00" font-size="12" fill="#6b7280">Expected</text>
<text x="266.00" y="676.00" font-size="12" fill="#b45309">Surge window</text>
<text x="386.00" y="676.00" font-size="12" fill="#b42318">Drop window</text>
<rect x="860.00" y="240.00" width="320.00" height="400.00" rx="18" fill="#ffffff" stroke="#d7d0c5" />
<text x="880.00" y="272.00" font-size="17" font-weight="700" fill="#1f2937">Why this verdict</text>
<text x="880.00" y="298.00" font-size="13" fill="#5f6b7a"><tspan x="880.00" dy="0">Soft morning performance was followed by</tspan><tspan x="880.00" dy="17">elevated later hours. Keep this checkout</tspan><tspan x="880.00" dy="17">on watch, but broad uplift still ranks</tspan><tspan x="880.00" dy="17">below interruption risk elsewhere.</tspan></text>
<rect x="860.00" y="380.00" width="320.00" height="56.00" rx="14" fill="#ffffff" stroke="#d7d0c5" /><circle cx="882.00" cy="402.00" r="12" fill="#b42318" /><text x="882.00" y="406.00" font-size="10" text-anchor="middle" fill="white" font-weight="700">1</text><text x="904.00" y="400.00" font-size="13" font-weight="700" fill="#1f2937">08h-09h drop</text><text x="904.00" y="422.00" font-size="12" fill="#5f6b7a">Today 2 vs expected 35.4 (-94.4%); zero-gap at 08h</text><rect x="860.00" y="444.00" width="320.00" height="56.00" rx="14" fill="#ffffff" stroke="#d7d0c5" /><circle cx="882.00" cy="466.00" r="12" fill="#b45309" /><text x="882.00" y="470.00" font-size="10" text-anchor="middle" fill="white" font-weight="700">2</text><text x="904.00" y="464.00" font-size="13" font-weight="700" fill="#1f2937">17h surge</text><text x="904.00" y="486.00" font-size="12" fill="#5f6b7a">Today 45 vs expected 23.9 (+88.3%)</text><rect x="860.00" y="508.00" width="320.00" height="56.00" rx="14" fill="#ffffff" stroke="#d7d0c5" /><circle cx="882.00" cy="530.00" r="12" fill="#b45309" /><text x="882.00" y="534.00" font-size="10" text-anchor="middle" fill="white" font-weight="700">3</text><text x="904.00" y="528.00" font-size="13" font-weight="700" fill="#1f2937">10h surge</text><text x="904.00" y="550.00" font-size="12" fill="#5f6b7a">Today 55 vs expected 34.3 (+60.6%)</text><rect x="860.00" y="572.00" width="320.00" height="56.00" rx="14" fill="#ffffff" stroke="#d7d0c5" /><circle cx="882.00" cy="594.00" r="12" fill="#b45309" /><text x="882.00" y="598.00" font-size="10" text-anchor="middle" fill="white" font-weight="700">4</text><text x="904.00" y="592.00" font-size="13" font-weight="700" fill="#1f2937">12h surge</text><text x="904.00" y="614.00" font-size="12" fill="#5f6b7a">Today 51 vs expected 30.7 (+66.3%)</text>
<text x="80" y="704" font-size="12" fill="#5f6b7a">Evidence review prioritizes suspicious windows. It does not prove business or system root cause on its own.</text>
</svg>