<svg xmlns="http://www.w3.org/2000/svg" width="1100" height="520">
<rect width="100%" height="100%" fill="white"/>
<text x="60" y="18" font-size="18" font-family="Arial">Checkout 2 - Hourly Comparison</text>
<text x="60" y="30" fill="#1f77b4" font-size="14">Today</text><text x="300" y="30" fill="#2ca02c" font-size="14">Yesterday</text><text x="540" y="30" fill="#ff7f0e" font-size="14">Avg Last Week</text><text x="780" y="30" fill="#d62728" font-size="14">Avg Last Month</text>
<line x1="60" y1="60.00" x2="1040" y2="60.00" stroke="#e8e8e8" /><text x="10" y="64.00" font-size="11">55.0</text><line x1="60" y1="140.00" x2="1040" y2="140.00" stroke="#e8e8e8" /><text x="10" y="144.00" font-size="11">44.0</text><line x1="60" y1="220.00" x2="1040" y2="220.00" stroke="#e8e8e8" /><text x="10" y="224.00" font-size="11">33.0</text><line x1="60" y1="300.00" x2="1040" y2="300.00" stroke="#e8e8e8" /><text x="10" y="304.00" font-size="11">22.0</text><line x1="60" y1="380.00" x2="1040" y2="380.00" stroke="#e8e8e8" /><text x="10" y="384.00" font-size="11">11.0</text><line x1="60" y1="460.00" x2="1040" y2="460.00" stroke="#e8e8e8" /><text x="10" y="464.00" font-size="11">0.0</text>
<line x1="60" y1="460" x2="1040" y2="460" stroke="#555"/>
<line x1="60" y1="60" x2="60" y2="460" stroke="#555"/>
<polyline fill="none" stroke="#1f77b4" stroke-width="2.5" points="60.00,416.36 102.61,438.18 145.22,438.18 187.83,460.00 230.43,460.00 273.04,445.45 315.65,438.18 358.26,387.27 400.87,278.18 443.48,198.18 486.09,147.27 528.70,140.00 571.30,125.45 613.91,132.73 656.52,321.82 699.13,460.00 741.74,460.00 784.35,460.00 826.96,365.45 869.57,227.27 912.17,292.73 954.78,256.36 997.39,249.09 1040.00,336.36" /><polyline fill="none" stroke="#2ca02c" stroke-width="2.5" points="60.00,394.55 102.61,438.18 145.22,452.73 187.83,452.73 230.43,460.00 273.04,452.73 315.65,452.73 358.26,445.45 400.87,460.00 443.48,445.45 486.09,60.00 528.70,198.18 571.30,89.09 613.91,198.18 656.52,227.27 699.13,89.09 741.74,161.82 784.35,132.73 826.96,227.27 869.57,220.00 912.17,278.18 954.78,241.82 997.39,256.36 1040.00,380.00" /><polyline fill="none" stroke="#ff7f0e" stroke-width="2.5" points="60.00,423.64 102.61,445.45 145.22,456.95 187.83,456.95 230.43,458.98 273.04,454.84 315.65,449.67 358.26,438.18 400.87,433.02 443.48,386.25 486.09,269.89 528.70,278.18 571.30,285.45 613.91,312.51 656.52,317.67 699.13,296.89 741.74,303.13 784.35,331.20 826.96,337.45 869.57,329.09 912.17,371.71 954.78,352.00 997.39,367.56 1040.00,399.78" /><polyline fill="none" stroke="#d62728" stroke-width="2.5" points="60.00,424.22 102.61,446.04 145.22,454.55 187.83,456.65 230.43,458.47 273.04,454.84 315.65,444.73 358.26,423.42 400.87,388.58 443.48,331.71 486.09,252.22 528.70,254.33 571.30,271.71 613.91,284.22 656.52,278.98 699.13,257.96 741.74,274.33 784.35,295.13 826.96,325.75 869.57,327.56 912.17,325.24 954.78,330.40 997.39,347.27 1040.00,396.36" />
<text x="60.00" y="500" font-size="10" text-anchor="middle">00h</text><text x="102.61" y="500" font-size="10" text-anchor="middle">01h</text><text x="145.22" y="500" font-size="10" text-anchor="middle">02h</text><text x="187.83" y="500" font-size="10" text-anchor="middle">03h</text><text x="230.43" y="500" font-size="10" text-anchor="middle">04h</text><text x="273.04" y="500" font-size="10" text-anchor="middle">05h</text><text x="315.65" y="500" font-size="10" text-anchor="middle">06h</text><text x="358.26" y="500" font-size="10" text-anchor="middle">07h</text><text x="400.87" y="500" font-size="10" text-anchor="middle">08h</text><text x="443.48" y="500" font-size="10" text-anchor="middle">09h</text><text x="486.09" y="500" font-size="10" text-anchor="middle">10h</text><text x="528.70" y="500" font-size="10" text-anchor="middle">11h</text><text x="571.30" y="500" font-size="10" text-anchor="middle">12h</text><text x="613.91" y="500" font-size="10" text-anchor="middle">13h</text><text x="656.52" y="500" font-size="10" text-anchor="middle">14h</text><text x="699.13" y="500" font-size="10" text-anchor="middle">15h</text><text x="741.74" y="500" font-size="10" text-anchor="middle">16h</text><text x="784.35" y="500" font-size="10" text-anchor="middle">17h</text><text x="826.96" y="500" font-size="10" text-anchor="middle">18h</text><text x="869.57" y="500" font-size="10" text-anchor="middle">19h</text><text x="912.17" y="500" font-size="10" text-anchor="middle">20h</text><text x="954.78" y="500" font-size="10" text-anchor="middle">21h</text><text x="997.39" y="500" font-size="10" text-anchor="middle">22h</text><text x="1040.00" y="500" font-size="10" text-anchor="middle">23h</text>
</svg>