<svg xmlns="http://www.w3.org/2000/svg" width="1260" height="760">
<rect width="100%" height="100%" fill="#f8f6f1"/>
<text x="80" y="44" font-size="28" font-weight="700" fill="#1f2937">Checkout 2 Investigation Summary</text>
<text x="80" y="72" font-size="14" fill="#5f6b7a">Question: does this checkout deserve investigation before the others?</text>
<rect x="1015" y="28" width="165" height="40" rx="20" fill="#fecaca" />
<text x="1097.5" y="54" font-size="15" font-weight="700" text-anchor="middle" fill="#991b1b">INVESTIGATE NOW</text>
<rect x="80.00" y="102.00" width="252.00" height="88.00" rx="16" fill="#ffffff" stroke="#d7d0c5" /><text x="98.00" y="130.00" font-size="13" fill="#5f6b7a">Today total</text><text x="98.00" y="164.00" font-size="28" font-weight="700" fill="#1f2937">427</text><rect x="350.00" y="102.00" width="252.00" height="88.00" rx="16" fill="#ffffff" stroke="#d7d0c5" /><text x="368.00" y="130.00" font-size="13" fill="#5f6b7a">Expected total</text><text x="368.00" y="164.00" font-size="28" font-weight="700" fill="#1f2937">374.4</text><rect x="620.00" y="102.00" width="252.00" height="88.00" rx="16" fill="#ffffff" stroke="#d7d0c5" /><text x="638.00" y="130.00" font-size="13" fill="#5f6b7a">Net deviation</text><text x="638.00" y="164.00" font-size="28" font-weight="700" fill="#1f2937">+14.1%</text><rect x="890.00" y="102.00" width="252.00" height="88.00" rx="16" fill="#ffffff" stroke="#d7d0c5" /><text x="908.00" y="130.00" font-size="13" fill="#5f6b7a">Investigate first</text><text x="908.00" y="164.00" font-size="28" font-weight="700" fill="#1f2937">Yes</text>
<rect x="80.00" y="240.00" width="740.00" height="380.00" rx="18" fill="#ffffff" stroke="#d7d0c5" />
<text x="98.00" y="224.00" font-size="15" font-weight="700" fill="#1f2937">Today vs expected hourly volume</text>
<text x="98.00" y="264.00" font-size="12" fill="#5f6b7a">Expected is the blended baseline from recent historical references; yesterday alone remains evidence but is noisier on its own.</text>
<line x1="80.00" y1="240.00" x2="820.00" y2="240.00" stroke="#dfe4ea" /><text x="62.00" y="244.00" font-size="11" text-anchor="end" fill="#5f6b7a">46</text><line x1="80.00" y1="316.00" x2="820.00" y2="316.00" stroke="#dfe4ea" /><text x="62.00" y="320.00" font-size="11" text-anchor="end" fill="#5f6b7a">37</text><line x1="80.00" y1="392.00" x2="820.00" y2="392.00" stroke="#dfe4ea" /><text x="62.00" y="396.00" font-size="11" text-anchor="end" fill="#5f6b7a">28</text><line x1="80.00" y1="468.00" x2="820.00" y2="468.00" stroke="#dfe4ea" /><text x="62.00" y="472.00" font-size="11" text-anchor="end" fill="#5f6b7a">18</text><line x1="80.00" y1="544.00" x2="820.00" y2="544.00" stroke="#dfe4ea" /><text x="62.00" y="548.00" font-size="11" text-anchor="end" fill="#5f6b7a">9</text><line x1="80.00" y1="620.00" x2="820.00" y2="620.00" stroke="#dfe4ea" /><text x="62.00" y="624.00" font-size="11" text-anchor="end" fill="#5f6b7a">0</text>
<rect x="321.30" y="240.00" width="64.35" height="380.00" fill="#f6d365" opacity="0.28" /><rect x="482.17" y="240.00" width="32.17" height="380.00" fill="#f6d365" opacity="0.28" /><rect x="546.52" y="240.00" width="96.52" height="380.00" fill="#f7c6c7" opacity="0.36" /><rect x="739.57" y="240.00" width="64.35" height="380.00" fill="#f6d365" opacity="0.28" />
<line x1="80.00" y1="620.00" x2="820.00" y2="620.00" stroke="#68717d" />
<line x1="80.00" y1="240.00" x2="80.00" y2="620.00" stroke="#68717d" />
<polyline fill="none" stroke="#6b7280" stroke-width="3" stroke-dasharray="10 8" points="80.00,578.92 112.17,603.70 144.35,611.27 176.52,614.82 208.70,619.04 240.87,613.34 273.04,604.80 305.22,573.11 337.39,549.70 369.57,469.16 401.74,353.70 433.91,343.87 466.09,355.96 498.26,412.24 530.43,401.20 562.61,366.10 594.78,391.17 626.96,456.49 659.13,442.91 691.30,440.44 723.48,488.73 755.65,466.71 787.83,495.51 820.00,534.56" />
<polyline fill="none" stroke="#0f4c81" stroke-width="4" points="80.00,570.43 112.17,595.22 144.35,595.22 176.52,620.00 208.70,620.00 240.87,603.48 273.04,595.22 305.22,537.39 337.39,413.48 369.57,322.61 401.74,264.78 433.91,256.52 466.09,240.00 498.26,248.26 530.43,463.04 562.61,620.00 594.78,620.00 626.96,620.00 659.13,512.61 691.30,355.65 723.48,430.00 755.65,388.70 787.83,380.43 820.00,479.57" />
<circle cx="562.61" cy="620.00" r="11" fill="#b42318" stroke="white" stroke-width="2" /><text x="562.61" y="624.00" font-size="10" text-anchor="middle" fill="white" font-weight="700">1</text><circle cx="369.57" cy="322.61" r="11" fill="#b45309" stroke="white" stroke-width="2" /><text x="369.57" y="326.61" font-size="10" text-anchor="middle" fill="white" font-weight="700">2</text><circle cx="787.83" cy="380.43" r="11" fill="#b45309" stroke="white" stroke-width="2" /><text x="787.83" y="384.43" font-size="10" text-anchor="middle" fill="white" font-weight="700">3</text><circle cx="498.26" cy="248.26" r="11" fill="#b45309" stroke="white" stroke-width="2" /><text x="498.26" y="252.26" font-size="10" text-anchor="middle" fill="white" font-weight="700">4</text>
<text x="80.00" y="648.00" font-size="10" text-anchor="middle" fill="#5f6b7a">00h</text><text x="112.17" y="648.00" font-size="10" text-anchor="middle" fill="#5f6b7a">01h</text><text x="144.35" y="648.00" font-size="10" text-anchor="middle" fill="#5f6b7a">02h</text><text x="176.52" y="648.00" font-size="10" text-anchor="middle" fill="#5f6b7a">03h</text><text x="208.70" y="648.00" font-size="10" text-anchor="middle" fill="#5f6b7a">04h</text><text x="240.87" y="648.00" font-size="10" text-anchor="middle" fill="#5f6b7a">05h</text><text x="273.04" y="648.00" font-size="10" text-anchor="middle" fill="#5f6b7a">06h</text><text x="305.22" y="648.00" font-size="10" text-anchor="middle" fill="#5f6b7a">07h</text><text x="337.39" y="648.00" font-size="10" text-anchor="middle" fill="#5f6b7a">08h</text><text x="369.57" y="648.00" font-size="10" text-anchor="middle" fill="#5f6b7a">09h</text><text x="401.74" y="648.00" font-size="10" text-anchor="middle" fill="#5f6b7a">10h</text><text x="433.91" y="648.00" font-size="10" text-anchor="middle" fill="#5f6b7a">11h</text><text x="466.09" y="648.00" font-size="10" text-anchor="middle" fill="#5f6b7a">12h</text><text x="498.26" y="648.00" font-size="10" text-anchor="middle" fill="#5f6b7a">13h</text><text x="530.43" y="648.00" font-size="10" text-anchor="middle" fill="#5f6b7a">14h</text><text x="562.61" y="648.00" font-size="10" text-anchor="middle" fill="#5f6b7a">15h</text><text x="594.78" y="648.00" font-size="10" text-anchor="middle" fill="#5f6b7a">16h</text><text x="626.96" y="648.00" font-size="10" text-anchor="middle" fill="#5f6b7a">17h</text><text x="659.13" y="648.00" font-size="10" text-anchor="middle" fill="#5f6b7a">18h</text><text x="691.30" y="648.00" font-size="10" text-anchor="middle" fill="#5f6b7a">19h</text><text x="723.48" y="648.00" font-size="10" text-anchor="middle" fill="#5f6b7a">20h</text><text x="755.65" y="648.00" font-size="10" text-anchor="middle" fill="#5f6b7a">21h</text><text x="787.83" y="648.00" font-size="10" text-anchor="middle" fill="#5f6b7a">22h</text><text x="820.00" y="648.00" font-size="10" text-anchor="middle" fill="#5f6b7a">23h</text>
<text x="98.00" y="676.00" font-size="12" fill="#0f4c81">Today</text>
<text x="170.00" y="676.00" font-size="12" fill="#6b7280">Expected</text>
<text x="266.00" y="676.00" font-size="12" fill="#b45309">Surge window</text>
<text x="386.00" y="676.00" font-size="12" fill="#b42318">Drop window</text>
<rect x="860.00" y="240.00" width="320.00" height="400.00" rx="18" fill="#ffffff" stroke="#d7d0c5" />
<text x="880.00" y="272.00" font-size="17" font-weight="700" fill="#1f2937">Why this verdict</text>
<text x="880.00" y="298.00" font-size="13" fill="#5f6b7a"><tspan x="880.00" dy="0">Healthy morning demand gave way to a</tspan><tspan x="880.00" dy="17">multi-hour checkout gap. Structural</tspan><tspan x="880.00" dy="17">interruption risk outranks broad uplift,</tspan><tspan x="880.00" dy="17">so this checkout comes first.</tspan></text>
<rect x="860.00" y="380.00" width="320.00" height="56.00" rx="14" fill="#ffffff" stroke="#d7d0c5" /><circle cx="882.00" cy="402.00" r="12" fill="#b42318" /><text x="882.00" y="406.00" font-size="10" text-anchor="middle" fill="white" font-weight="700">1</text><text x="904.00" y="400.00" font-size="13" font-weight="700" fill="#1f2937">15h-17h zero-gap drop</text><text x="904.00" y="422.00" font-size="12" fill="#5f6b7a">Today 0 vs expected 78.2 (-100.0%)</text><rect x="860.00" y="444.00" width="320.00" height="56.00" rx="14" fill="#ffffff" stroke="#d7d0c5" /><circle cx="882.00" cy="466.00" r="12" fill="#b45309" /><text x="882.00" y="470.00" font-size="10" text-anchor="middle" fill="white" font-weight="700">2</text><text x="904.00" y="464.00" font-size="13" font-weight="700" fill="#1f2937">08h-09h surge</text><text x="904.00" y="486.00" font-size="12" fill="#5f6b7a">Today 61 vs expected 26.8 (+127.9%)</text><rect x="860.00" y="508.00" width="320.00" height="56.00" rx="14" fill="#ffffff" stroke="#d7d0c5" /><circle cx="882.00" cy="530.00" r="12" fill="#b45309" /><text x="882.00" y="534.00" font-size="10" text-anchor="middle" fill="white" font-weight="700">3</text><text x="904.00" y="528.00" font-size="13" font-weight="700" fill="#1f2937">21h-22h surge</text><text x="904.00" y="550.00" font-size="12" fill="#5f6b7a">Today 57 vs expected 33.6 (+69.5%)</text><rect x="860.00" y="572.00" width="320.00" height="56.00" rx="14" fill="#ffffff" stroke="#d7d0c5" /><circle cx="882.00" cy="594.00" r="12" fill="#b45309" /><text x="882.00" y="598.00" font-size="10" text-anchor="middle" fill="white" font-weight="700">4</text><text x="904.00" y="592.00" font-size="13" font-weight="700" fill="#1f2937">13h surge</text><text x="904.00" y="614.00" font-size="12" fill="#5f6b7a">Today 45 vs expected 25.1 (+78.9%)</text>
<text x="80" y="704" font-size="12" fill="#5f6b7a">Evidence review prioritizes suspicious windows. It does not prove business or system root cause on its own.</text>
</svg>