<svg xmlns="http://www.w3.org/2000/svg" width="1100" height="520">
<rect width="100%" height="100%" fill="white"/>
<text x="60" y="18" font-size="18" font-family="Arial">Checkout 1 - Hourly Comparison</text>
<text x="60" y="30" fill="#1f77b4" font-size="14">Today</text><text x="300" y="30" fill="#2ca02c" font-size="14">Yesterday</text><text x="540" y="30" fill="#ff7f0e" font-size="14">Avg Last Week</text><text x="780" y="30" fill="#d62728" font-size="14">Avg Last Month</text>
<line x1="60" y1="60.00" x2="1040" y2="60.00" stroke="#e8e8e8" /><text x="10" y="64.00" font-size="11">55.0</text><line x1="60" y1="140.00" x2="1040" y2="140.00" stroke="#e8e8e8" /><text x="10" y="144.00" font-size="11">44.0</text><line x1="60" y1="220.00" x2="1040" y2="220.00" stroke="#e8e8e8" /><text x="10" y="224.00" font-size="11">33.0</text><line x1="60" y1="300.00" x2="1040" y2="300.00" stroke="#e8e8e8" /><text x="10" y="304.00" font-size="11">22.0</text><line x1="60" y1="380.00" x2="1040" y2="380.00" stroke="#e8e8e8" /><text x="10" y="384.00" font-size="11">11.0</text><line x1="60" y1="460.00" x2="1040" y2="460.00" stroke="#e8e8e8" /><text x="10" y="464.00" font-size="11">0.0</text>
<line x1="60" y1="460" x2="1040" y2="460" stroke="#555"/>
<line x1="60" y1="60" x2="60" y2="460" stroke="#555"/>
<polyline fill="none" stroke="#1f77b4" stroke-width="2.5" points="60.00,394.55 102.61,438.18 145.22,452.73 187.83,452.73 230.43,460.00 273.04,452.73 315.65,452.73 358.26,445.45 400.87,460.00 443.48,445.45 486.09,60.00 528.70,198.18 571.30,89.09 613.91,198.18 656.52,227.27 699.13,89.09 741.74,161.82 784.35,132.73 826.96,227.27 869.57,220.00 912.17,278.18 954.78,241.82 997.39,256.36 1040.00,380.00" /><polyline fill="none" stroke="#2ca02c" stroke-width="2.5" points="60.00,372.73 102.61,423.64 145.22,460.00 187.83,460.00 230.43,460.00 273.04,452.73 315.65,452.73 358.26,438.18 400.87,452.73 443.48,394.55 486.09,89.09 528.70,140.00 571.30,176.36 613.91,161.82 656.52,205.45 699.13,205.45 741.74,198.18 784.35,241.82 826.96,278.18 869.57,176.36 912.17,285.45 954.78,205.45 997.39,249.09 1040.00,256.36" /><polyline fill="none" stroke="#ff7f0e" stroke-width="2.5" points="60.00,413.31 102.61,446.55 145.22,457.96 187.83,456.95 230.43,456.95 273.04,450.69 315.65,439.27 358.26,419.49 400.87,396.65 443.48,314.55 486.09,246.04 528.70,214.84 571.30,259.49 613.91,272.00 656.52,269.89 699.13,255.35 741.74,258.47 784.35,311.49 826.96,303.13 869.57,298.98 912.17,333.31 954.78,323.93 997.39,347.85 1040.00,390.40" /><polyline fill="none" stroke="#d62728" stroke-width="2.5" points="60.00,424.73 102.61,446.04 145.22,454.04 187.83,456.65 230.43,458.47 273.04,454.55 315.65,443.42 358.26,422.11 400.87,384.22 443.48,321.31 486.09,253.82 528.70,252.73 571.30,275.13 613.91,283.93 656.52,276.65 699.13,258.47 741.74,273.53 784.35,297.96 826.96,327.05 869.57,324.22 912.17,322.40 954.78,332.22 997.39,346.25 1040.00,396.36" />
<text x="60.00" y="500" font-size="10" text-anchor="middle">00h</text><text x="102.61" y="500" font-size="10" text-anchor="middle">01h</text><text x="145.22" y="500" font-size="10" text-anchor="middle">02h</text><text x="187.83" y="500" font-size="10" text-anchor="middle">03h</text><text x="230.43" y="500" font-size="10" text-anchor="middle">04h</text><text x="273.04" y="500" font-size="10" text-anchor="middle">05h</text><text x="315.65" y="500" font-size="10" text-anchor="middle">06h</text><text x="358.26" y="500" font-size="10" text-anchor="middle">07h</text><text x="400.87" y="500" font-size="10" text-anchor="middle">08h</text><text x="443.48" y="500" font-size="10" text-anchor="middle">09h</text><text x="486.09" y="500" font-size="10" text-anchor="middle">10h</text><text x="528.70" y="500" font-size="10" text-anchor="middle">11h</text><text x="571.30" y="500" font-size="10" text-anchor="middle">12h</text><text x="613.91" y="500" font-size="10" text-anchor="middle">13h</text><text x="656.52" y="500" font-size="10" text-anchor="middle">14h</text><text x="699.13" y="500" font-size="10" text-anchor="middle">15h</text><text x="741.74" y="500" font-size="10" text-anchor="middle">16h</text><text x="784.35" y="500" font-size="10" text-anchor="middle">17h</text><text x="826.96" y="500" font-size="10" text-anchor="middle">18h</text><text x="869.57" y="500" font-size="10" text-anchor="middle">19h</text><text x="912.17" y="500" font-size="10" text-anchor="middle">20h</text><text x="954.78" y="500" font-size="10" text-anchor="middle">21h</text><text x="997.39" y="500" font-size="10" text-anchor="middle">22h</text><text x="1040.00" y="500" font-size="10" text-anchor="middle">23h</text>
</svg>